<?xml version="1.0" encoding="UTF-8"?>
<svg xmlns="http://www.w3.org/2000/svg" viewBox="0 0 108 120" role="img" aria-label="Barn AI">
  <defs>
    <linearGradient id="sh-1" x1="0" y1="0" x2="0" y2="1">
      <stop offset="0%" stop-color="#fda4af"/>
      <stop offset="100%" stop-color="#f43f5e"/>
    </linearGradient>
    <linearGradient id="sh-2" x1="0" y1="0" x2="0" y2="1">
      <stop offset="0%" stop-color="#fde68a"/>
      <stop offset="100%" stop-color="#f59e0b"/>
    </linearGradient>
    <linearGradient id="sh-3" x1="0" y1="0" x2="0" y2="1">
      <stop offset="0%" stop-color="#a7f3d0"/>
      <stop offset="100%" stop-color="#10b981"/>
    </linearGradient>
  </defs>
  <path d="M 4 56 A 38 38 0 0 1 80 56 L 80 98 A 10 10 0 0 1 70 108 L 14 108 A 10 10 0 0 1 4 98 Z" fill="url(#sh-1)" opacity="0.95"/>
  <path d="M 14 52 A 38 38 0 0 1 90 52 L 90 98 A 10 10 0 0 1 80 108 L 24 108 A 10 10 0 0 1 14 98 Z" fill="url(#sh-2)" opacity="0.95"/>
  <path d="M 24 48 A 38 38 0 0 1 100 48 L 100 98 A 10 10 0 0 1 90 108 L 34 108 A 10 10 0 0 1 24 98 Z" fill="url(#sh-3)" opacity="0.95"/>
</svg>
