<?xml version="1.0"?>
<svg xmlns="http://www.w3.org/2000/svg" viewBox="0 0 512 512" width="512" height="512">
  <defs><linearGradient id="sh-1" x1="0" y1="0" x2="0" y2="1"><stop offset="0%" stop-color="#fda4af"></stop><stop offset="100%" stop-color="#f43f5e"></stop></linearGradient><linearGradient id="sh-2" x1="0" y1="0" x2="0" y2="1"><stop offset="0%" stop-color="#fde68a"></stop><stop offset="100%" stop-color="#f59e0b"></stop></linearGradient><linearGradient id="sh-3" x1="0" y1="0" x2="0" y2="1"><stop offset="0%" stop-color="#a7f3d0"></stop><stop offset="100%" stop-color="#10b981"></stop></linearGradient></defs>
  <g transform="translate(54.51851851851853 38.400000000000034) scale(4.029629629629629)">
    <path d="M 4 56 A 38 38 0 0 1 80 56 L 80 98 A 10 10 0 0 1 70 108 L 14 108 A 10 10 0 0 1 4 98 Z" fill="url(#sh-1)" opacity="0.95"></path>
    <path d="M 14 52 A 38 38 0 0 1 90 52 L 90 98 A 10 10 0 0 1 80 108 L 24 108 A 10 10 0 0 1 14 98 Z" fill="url(#sh-2)" opacity="0.95"></path>
    <path d="M 24 48 A 38 38 0 0 1 100 48 L 100 98 A 10 10 0 0 1 90 108 L 34 108 A 10 10 0 0 1 24 98 Z" fill="url(#sh-3)" opacity="0.95"></path>
  </g>
</svg>